<?xml version="1.0" encoding="UTF-8"?>
<svg id="_图层_2" data-name="图层 2" xmlns="http://www.w3.org/2000/svg" viewBox="0 0 2260.59 631.94">
  <defs>
    <style>
      .cls-1, .cls-2 {
        fill: #c8c8c8;
      }

      .cls-1, .cls-3 {
        stroke-width: 0px;
      }

      .cls-2 {
        stroke: #c8c8c8;
      }

      .cls-3 {
        fill: #fff;
      }

      .cls-4 {
        fill: #cd9400;
        stroke: #cd9400;
      }
    </style>
  </defs>
  <g id="_图层_1-2" data-name="图层 1">
    <g>
      <path class="cls-4" d="m.58,489.72c-9.85,133.7,890.24,232.58,814.72,10.61-2.32-6.83-7.08-13.08-12.6-17.71-60.16-50.49-100.41-68.66-244.82-79.67-96.77-4.96-561.8,0-557.29,86.77Z"/>
      <path class="cls-2" d="m63.43,453.04c-1.73-66.64,51.84-100.23,155.16-74.62,5.21,1.29,10.39,3.08,15.13,5.58,30.48,16.09,9.47,24.21-4.73,25.72-6.06.64-12.2-.87-18.23-1.74-122.13-17.65-99.77,68.07-8.95,98.48,189.53,78.58,363.75,40.43,385.11,35.26,1.48-.36,2.96-.72,4.45-1.04,84.38-18.47,130.02-33.63,87.8-48.87-5.83-2.1-12.05-2.98-18.13-4.15-40.19-7.71-51.11-38.12,17.89-37.62,18.5.14,61.91,7.18,90.3,32.73,28.39,25.55,1.39,53.67-51.44,70.18-91.67,31.89-184.16,43.08-296.71,46.01-112.54,2.93-351.16-48.07-357.65-145.93Z"/>
      <path class="cls-1" d="m606.18,438.03c2.61,11.94,4.13,17.35,8.29,38.56,1.07,5.45,1.28,23.02-15.09,29.49-69.55,27.49-276.77,42.91-354.29-18.56-30.87-19.03-50.99-34.7-55.42-65.61-2.7-18.83.43-43.31,10.49-77.65,27.61-122.26,54.24-165.69,101.25-288.32,29.4-62.98,65.28-74.44,75.11-25.98s4.01,41.7,18.95,48.45c13.26,5.99,86.46,12.69,117.48,4.06,6.63-1.84,11.32-7.21,14.78-13.17,26.76-46.09,35.69-50.13,46.09-45.74,1.62.68,3.07,1.72,4.34,2.93,25.92,24.66,21.85,47.41,30.03,80.57.32,1.29.53,2.62.6,3.95,2.36,44.13,2.27,68.27-.11,108.95-7.57,119.95-7.35,156.76-6.38,185.89.36,10.77,1.58,21.64,3.88,32.16Z"/>
      <path class="cls-3" d="m990.38,515.8c-13.92,0-29.64-1.2-47.16-3.6-9.6-1.2-16.2-3.72-19.8-7.56-3.6-3.84-5.16-10.08-4.68-18.72,1.68-23.76,5.64-53.04,11.88-87.84,6.24-35.04,13.8-68.76,22.68-101.16,1.68-6,5.04-10.2,10.08-12.6s11.64-3.6,19.8-3.6c14.64,0,21.96,4.08,21.96,12.24,0,3.36-.72,7.2-2.16,11.52-6.24,19.2-12.48,45-18.72,77.4-6.24,32.16-10.68,62.88-13.32,92.16,7.2.72,15.36,1.08,24.48,1.08,42,0,73.32-12.72,93.96-38.16,20.88-25.44,31.32-59.4,31.32-101.88,0-28.56-8.16-50.64-24.48-66.24-16.32-15.6-39.36-23.4-69.12-23.4-19.2,0-38.28,3-57.24,9-18.72,6-35.64,13.92-50.76,23.76-3.12,2.16-6.48,3.24-10.08,3.24-4.08,0-7.32-1.68-9.72-5.04-2.4-3.6-3.6-7.92-3.6-12.96,0-5.76.96-10.44,2.88-14.04,1.92-3.84,5.16-7.32,9.72-10.44,16.56-11.28,36-19.8,58.32-25.56,22.32-6,43.8-9,64.44-9,29.28,0,54.6,5.16,75.96,15.48,21.36,10.08,37.8,24.96,49.32,44.64,11.52,19.68,17.28,43.44,17.28,71.28,0,36.24-7.2,67.92-21.6,95.04-14.4,26.88-35.4,47.76-63,62.64-27.6,14.88-60.48,22.32-98.64,22.32Zm229.38,0c-9.12,0-15.6-4.8-19.44-14.4-3.6-9.6-5.4-24.96-5.4-46.08,0-31.2,4.44-60.84,13.32-88.92,2.16-6.96,5.64-12,10.44-15.12,5.04-3.36,12-5.04,20.88-5.04,4.8,0,8.16.6,10.08,1.8,1.92,1.2,2.88,3.48,2.88,6.84,0,3.84-1.8,12.48-5.4,25.92-2.4,9.6-4.32,18-5.76,25.2-1.44,7.2-2.64,16.08-3.6,26.64,7.92-20.64,16.8-37.44,26.64-50.4,9.84-12.96,19.44-22.2,28.8-27.72,9.6-5.52,18.36-8.28,26.28-8.28,15.6,0,23.4,7.8,23.4,23.4,0,3.12-1.08,10.68-3.24,22.68-1.92,9.6-2.88,15.6-2.88,18,0,8.4,3,12.6,9,12.6,6.72,0,15.36-5.28,25.92-15.84,3.12-3.12,6.36-4.68,9.72-4.68,3.12,0,5.52,1.44,7.2,4.32,1.92,2.64,2.88,6.24,2.88,10.8,0,8.88-2.4,15.84-7.2,20.88-6.72,6.96-14.64,12.96-23.76,18-8.88,4.8-18.36,7.2-28.44,7.2-12.72,0-22.44-3.24-29.16-9.72-6.48-6.48-9.72-15.24-9.72-26.28,0-3.6.36-7.2,1.08-10.8.48-4.8.72-8.04.72-9.72,0-3.84-1.32-5.76-3.96-5.76-3.6,0-8.4,4.08-14.4,12.24-5.76,7.92-11.52,18.48-17.28,31.68-5.76,13.2-10.44,27.12-14.04,41.76-2.64,11.28-5.76,18.96-9.36,23.04-3.36,3.84-8.76,5.76-16.2,5.76Zm321.87-112.32c3.12,0,5.52,1.56,7.2,4.68,1.68,3.12,2.52,7.08,2.52,11.88,0,11.52-3.48,18.36-10.44,20.52-14.4,5.04-30.24,7.92-47.52,8.64-4.56,20.16-13.56,36.36-27,48.6-13.44,12-28.68,18-45.72,18-14.4,0-26.76-3.48-37.08-10.44-10.08-6.96-17.76-16.2-23.04-27.72-5.28-11.52-7.92-24-7.92-37.44,0-18.24,3.48-34.44,10.44-48.6,6.96-14.4,16.56-25.56,28.8-33.48,12.24-8.16,25.8-12.24,40.68-12.24,18.24,0,32.88,6.36,43.92,19.08,11.28,12.48,17.88,27.96,19.8,46.44,11.28-.72,24.72-3.12,40.32-7.2,1.92-.48,3.6-.72,5.04-.72Zm-118.08,74.16c7.68,0,14.28-3.12,19.8-9.36,5.76-6.24,9.6-15.24,11.52-27-7.44-5.04-13.2-11.64-17.28-19.8-3.84-8.16-5.76-16.8-5.76-25.92,0-3.84.36-7.68,1.08-11.52h-1.8c-9.6,0-17.64,4.68-24.12,14.04-6.24,9.12-9.36,22.08-9.36,38.88,0,13.2,2.52,23.28,7.56,30.24,5.28,6.96,11.4,10.44,18.36,10.44Zm122.46,38.16c-9.12,0-15.6-4.8-19.44-14.4-3.6-9.6-5.4-24.96-5.4-46.08,0-31.2,4.44-60.84,13.32-88.92,2.16-6.96,5.64-12,10.44-15.12,5.04-3.36,12-5.04,20.88-5.04,4.8,0,8.16.6,10.08,1.8,1.92,1.2,2.88,3.48,2.88,6.84,0,3.84-1.8,12.48-5.4,25.92-2.4,9.6-4.32,18-5.76,25.2-1.44,6.96-2.64,15.72-3.6,26.28,6.48-18.72,14.16-34.56,23.04-47.52,9.12-12.96,18.36-22.56,27.72-28.8,9.6-6.48,18.6-9.72,27-9.72s14.28,1.92,17.64,5.76c3.6,3.84,5.4,9.72,5.4,17.64s-2.28,21.6-6.84,41.76c-1.92,8.64-3.24,15.12-3.96,19.44,12-29.52,25.32-51,39.96-64.44s28.32-20.16,41.04-20.16c15.6,0,23.4,7.8,23.4,23.4,0,9.36-2.64,26.28-7.92,50.76-4.56,20.88-6.84,34.68-6.84,41.4,0,9.6,3.48,14.4,10.44,14.4,4.8,0,10.44-2.88,16.92-8.64,6.72-6,15.6-15.6,26.64-28.8,2.88-3.36,6.12-5.04,9.72-5.04,3.12,0,5.52,1.44,7.2,4.32,1.92,2.88,2.88,6.84,2.88,11.88,0,9.6-2.28,17.04-6.84,22.32-10.32,12.72-21.48,23.16-33.48,31.32-11.76,8.16-25.2,12.24-40.32,12.24-12.24,0-21.48-3.48-27.72-10.44-6.24-7.2-9.36-17.52-9.36-30.96,0-6.72,1.68-18.72,5.04-36,3.12-15.12,4.68-25.56,4.68-31.32,0-3.84-1.32-5.76-3.96-5.76-3.12,0-7.56,4.08-13.32,12.24-5.76,7.92-11.52,18.48-17.28,31.68-5.76,13.2-10.44,27.12-14.04,41.76-2.64,11.52-5.76,19.2-9.36,23.04-3.36,3.84-8.88,5.76-16.56,5.76s-13.92-3.72-18-11.16c-3.84-7.68-5.76-16.92-5.76-27.72,0-9.12,1.2-22.32,3.6-39.6,1.92-15.36,2.88-25.44,2.88-30.24,0-3.84-1.32-5.76-3.96-5.76-3.6,0-8.16,4.32-13.68,12.96-5.52,8.64-10.92,19.68-16.2,33.12-5.04,13.44-9.12,26.64-12.24,39.6-2.64,11.28-5.76,18.96-9.36,23.04-3.36,3.84-8.76,5.76-16.2,5.76Zm286.61,0c-14.88,0-26.76-5.4-35.64-16.2-8.88-10.8-13.32-24.96-13.32-42.48,0-19.2,4.44-37.32,13.32-54.36,8.88-17.28,20.64-31.08,35.28-41.4,14.88-10.56,30.6-15.84,47.16-15.84,5.28,0,8.76,1.08,10.44,3.24,1.92,1.92,3.48,5.52,4.68,10.8,5.04-.96,10.32-1.44,15.84-1.44,11.76,0,17.64,4.2,17.64,12.6,0,5.04-1.8,17.04-5.4,36-5.52,27.6-8.28,46.8-8.28,57.6,0,3.6.84,6.48,2.52,8.64,1.92,2.16,4.32,3.24,7.2,3.24,4.56,0,10.08-2.88,16.56-8.64,6.48-6,15.24-15.6,26.28-28.8,2.88-3.36,6.12-5.04,9.72-5.04,3.12,0,5.52,1.44,7.2,4.32,1.92,2.88,2.88,6.84,2.88,11.88,0,9.6-2.28,17.04-6.84,22.32-9.84,12.24-20.28,22.56-31.32,30.96-11.04,8.4-21.72,12.6-32.04,12.6-7.92,0-15.24-2.64-21.96-7.92-6.48-5.52-11.4-12.96-14.76-22.32-12.48,20.16-28.2,30.24-47.16,30.24Zm12.96-36.36c5.28,0,10.32-3.12,15.12-9.36,4.8-6.24,8.28-14.52,10.44-24.84l13.32-66.24c-10.08.24-19.44,4.08-28.08,11.52-8.4,7.2-15.12,16.8-20.16,28.8-5.04,12-7.56,24.72-7.56,38.16,0,7.44,1.44,12.96,4.32,16.56,3.12,3.6,7.32,5.4,12.6,5.4Zm137.42,36.36c-9.12,0-15.6-4.8-19.44-14.4-3.6-9.6-5.4-24.96-5.4-46.08,0-31.2,4.44-60.84,13.32-88.92,2.16-6.96,5.64-12,10.44-15.12,5.04-3.36,12-5.04,20.88-5.04,4.8,0,8.16.6,10.08,1.8,1.92,1.2,2.88,3.48,2.88,6.84,0,3.84-1.8,12.48-5.4,25.92-2.4,9.6-4.32,18-5.76,25.2-1.44,7.2-2.64,16.08-3.6,26.64,7.92-20.64,16.8-37.44,26.64-50.4,9.84-12.96,19.44-22.2,28.8-27.72,9.6-5.52,18.36-8.28,26.28-8.28,15.6,0,23.4,7.8,23.4,23.4,0,3.12-1.08,10.68-3.24,22.68-1.92,9.6-2.88,15.6-2.88,18,0,8.4,3,12.6,9,12.6,6.72,0,15.36-5.28,25.92-15.84,3.12-3.12,6.36-4.68,9.72-4.68,3.12,0,5.52,1.44,7.2,4.32,1.92,2.64,2.88,6.24,2.88,10.8,0,8.88-2.4,15.84-7.2,20.88-6.72,6.96-14.64,12.96-23.76,18-8.88,4.8-18.36,7.2-28.44,7.2-12.72,0-22.44-3.24-29.16-9.72-6.48-6.48-9.72-15.24-9.72-26.28,0-3.6.36-7.2,1.08-10.8.48-4.8.72-8.04.72-9.72,0-3.84-1.32-5.76-3.96-5.76-3.6,0-8.4,4.08-14.4,12.24-5.76,7.92-11.52,18.48-17.28,31.68-5.76,13.2-10.44,27.12-14.04,41.76-2.64,11.28-5.76,18.96-9.36,23.04-3.36,3.84-8.76,5.76-16.2,5.76Zm179.67,0c-13.68,0-24.84-5.4-33.48-16.2-8.4-10.8-12.6-24.96-12.6-42.48,0-19.2,4.44-37.32,13.32-54.36,8.88-17.28,20.64-31.08,35.28-41.4,14.88-10.56,30.6-15.84,47.16-15.84,5.28,0,8.76,1.08,10.44,3.24,1.92,1.92,3.48,5.52,4.68,10.8,4.56-.96,9.6-1.44,15.12-1.44s10.2,1.44,13.32,4.32c3.12,2.88,4.68,6.96,4.68,12.24s-1.2,15.12-3.6,28.8c-2.64,14.64-4.68,28.68-6.12,42.12-1.44,13.2-2.16,28.08-2.16,44.64,0,9.12-1.92,15.72-5.76,19.8-3.6,3.84-9.6,5.76-18,5.76s-14.28-1.92-18.36-5.76c-3.84-4.08-5.76-10.56-5.76-19.44l.36-5.76c-7.44,20.64-20.28,30.96-38.52,30.96Zm14.04-36.36c6.72,0,12.84-4.68,18.36-14.04,5.52-9.36,10.44-26.04,14.76-50.04l6.84-36.36c-9.84.24-18.96,4.08-27.36,11.52-8.4,7.2-15.12,16.8-20.16,28.8-5.04,12-7.56,24.72-7.56,38.16,0,7.2,1.32,12.72,3.96,16.56,2.88,3.6,6.6,5.4,11.16,5.4Z"/>
    </g>
  </g>
</svg>